inDegrees=no
num_controls=7
num_derivatives=13
num_iterations=145
num_multipliers=7
num_parameters=0
num_slacks=7
num_states=26
objective=0.477033
objective_accelerations=0.044320
objective_balance=0.003543
objective_effort=0.040269
objective_height=0.383241
objective_ligament=0.005660
solver_duration=1968.477140
status=Solve_Succeeded
success=true
DataType=double
version=3
OpenSimVersion=4.5
endheader
time	/jointset/ground_pelvis/pelvis_tilt/value	/jointset/ground_pelvis/pelvis_tx/value	/jointset/ground_pelvis/pelvis_ty/value	/jointset/hip_l/hip_flexion_l/value	/jointset/hip_l/hip_adduction_l/value	/jointset/hip_l/hip_rotation_l/value	/jointset/back/lumbar_extension/value	/jointset/patellofemoral_l/patellar_flexion_l/value	/jointset/knee_l/knee_flexion_l/value	/jointset/knee_l/knee_adduction_l/value	/jointset/knee_l/knee_rotation_l/value	/jointset/ankle_l/ankle_angle_l/value	/jointset/subtalar_l/subtalar_angle_l/value	/jointset/ground_pelvis/pelvis_tilt/speed	/jointset/ground_pelvis/pelvis_tx/speed	/jointset/ground_pelvis/pelvis_ty/speed	/jointset/hip_l/hip_flexion_l/speed	/jointset/hip_l/hip_adduction_l/speed	/jointset/hip_l/hip_rotation_l/speed	/jointset/back/lumbar_extension/speed	/jointset/patellofemoral_l/patellar_flexion_l/speed	/jointset/knee_l/knee_flexion_l/speed	/jointset/knee_l/knee_adduction_l/speed	/jointset/knee_l/knee_rotation_l/speed	/jointset/ankle_l/ankle_angle_l/speed	/jointset/subtalar_l/subtalar_angle_l/speed	/forceset/tau_hip_flexion_l	/forceset/tau_hip_adduction_l	/forceset/tau_hip_rotation_l	/forceset/tau_knee_flexion_l	/forceset/tau_ankle_angle_l	/forceset/tau_subtalar_angle_l	/forceset/tau_lumbar_extension	lambda_cid13_p0	lambda_cid13_p1	lambda_cid13_p2	lambda_cid13_p3	lambda_cid13_p4	lambda_cid13_p5	lambda_cid14_p0	/jointset/ground_pelvis/pelvis_tilt/accel	/jointset/ground_pelvis/pelvis_tx/accel	/jointset/ground_pelvis/pelvis_ty/accel	/jointset/hip_l/hip_flexion_l/accel	/jointset/hip_l/hip_adduction_l/accel	/jointset/hip_l/hip_rotation_l/accel	/jointset/back/lumbar_extension/accel	/jointset/patellofemoral_l/patellar_flexion_l/accel	/jointset/knee_l/knee_flexion_l/accel	/jointset/knee_l/knee_adduction_l/accel	/jointset/knee_l/knee_rotation_l/accel	/jointset/ankle_l/ankle_angle_l/accel	/jointset/subtalar_l/subtalar_angle_l/accel	gamma_cid13_p0	gamma_cid13_p1	gamma_cid13_p2	gamma_cid13_p3	gamma_cid13_p4	gamma_cid13_p5	gamma_cid14_p0
1	-0.1038341393204156	-0.05570204636694395	0.6822742046630909	1.319924672038339	-0.328284183051214	0.0734706999240138	-0.9599302143824899	1.404732388267975	1.404732388268011	-0.06476126330876018	-0.1745261986551721	0.2870637859722716	0.06807216916703769	0.10332599666931	0.02583024570466183	0.06949446728652106	-0.2978039080096953	-0.007410777430263875	-0.06516409963408298	-0.000505847940995255	-0.1592289535639711	-0.1592289535639642	-0.001586841139503949	-4.240695932044487e-05	0.02652812174919615	0.003032128472080284	-0.3700128966892602	0.01593921142982786	0.001599798127030947	-0.3799640701013676	0.03281234760297751	0.02669684672743095	0.4248001495526001	-40.67625470074952	-3.574455219645195	-0.9100224881036096	13.9828960438384	-800.7328866986627	-71.14602458578017	-0.04145608995311861	0.7746977782076343	-0.01425572902727928	1.551631469956773	-4.936389311444964	-0.1243401037495039	-1.674157155914411	0.07466849976619833	-5.044214726818625	-5.044214726818633	-0.3576657421482533	-0.01458175470683153	-1.241360394491855	-0.6932915079278983	-8.683744582687672e-09	2.136110427251708e-08	6.373303064881147e-08	6.005809695516914e-09	-2.354263170550986e-08	1.273925250688518e-07	-1.676745006428764e-08
1.01	-0.1027623764916384	-0.05544439587673985	0.6830465170668036	1.316700552983752	-0.3283637466677403	0.07273453790087682	-0.9599309749926609	1.402888317605072	1.402888317605084	-0.06479307506491261	-0.1745263855515129	0.2872671547108791	0.06806893109665893	0.11103999172636	0.02570672766320809	0.08495680961539523	-0.3470110534385373	-0.008492498193649545	-0.08205915741712624	0.0003638659014510436	-0.2095730048562456	-0.2095730048562698	-0.004773046962748871	4.200379828445379e-06	0.01413680597318771	-0.003671082471853562	-0.3692812184263546	0.01613867277655487	0.001520516385249101	-0.3795984915107879	0.03254917899881555	0.02685222893823013	0.4244615524754079	-40.72029531894539	-3.650622802687243	-0.8791507278618198	13.8730492064236	-800.3272316339103	-71.21087319630588	-0.04148931273929378	0.7717617007127082	-0.01036568999921984	1.54184895225984	-4.91155262643553	-0.09867860584799121	-1.695825698810266	0.09464382893026563	-5.027669550088016	-5.027669550092603	-0.2987397423540681	0.01418082506333298	-1.239340292309375	-0.6575501899917378	-1.595163060278532e-08	1.502249337336079e-08	9.351029403860795e-08	1.418062674158684e-08	-3.036110697631808e-08	1.491939293514245e-07	-2.32164098002425e-08
1.02	-0.1016130714460378	-0.05518777373660929	0.6839731155613867	1.312984627381309	-0.3284538456005431	0.07182969617804641	-0.9599227342641548	1.400541172585316	1.400541172585303	-0.06485667722728554	-0.1745261266050958	0.2873463456670959	0.06799891805636778	0.1188344400337696	0.02562457568995599	0.1003516854605545	-0.3961652175806493	-0.009517840685631407	-0.0989000395726094	0.001294419841751834	-0.2598438249347657	-0.2598438249348178	-0.007944922383651253	4.676159248045003e-05	0.001692565271018328	-0.01032286551041191	-0.36854954016345	0.01633813412328104	0.001441234643471155	-0.3792329129202077	0.03228601039465398	0.02700761114902826	0.424122955398215	-40.77601421018207	-3.72329633279619	-0.8504915652190691	13.82221904275438	-800.0705522843053	-71.25055244646585	-0.0415233875760047	0.790788428279545	-0.005982515386950358	1.538138173213807	-4.925793054098941	-0.1130644494687443	-1.663322030402396	0.08683651933699016	-5.029568484067749	-5.029568484067129	-0.3547996616797455	-0.01539098000621268	-1.251945379724039	-0.6830059268528005	-2.323890254718253e-08	5.844108551368077e-09	1.222433613275039e-07	2.120987714041267e-08	-3.730665694117907e-08	1.674742990522987e-07	-2.970349332324062e-08
1.03	-0.1003858967747995	-0.05493150230297694	0.6850532914746911	1.308777666518398	-0.328553908843958	0.0707567844765294	-0.9599029397008735	1.397691781849465	1.397691781849465	-0.06495194876166237	-0.174525447335678	0.2873011821475852	0.06786282709378136	0.1265675550666187	0.02566331090400763	0.115669220800948	-0.445196633353419	-0.01048692006891849	-0.1156702700934302	0.002868035920286457	-0.3100133613164005	-0.3100133613164347	-0.01110897648702631	8.497870187109581e-05	-0.01069891587745442	-0.0168715671955448	-0.3691647998452111	0.01662376540256779	0.001324114708853902	-0.3784795755390888	0.03210627388156222	0.02726834578839675	0.4254590797749475	-40.82971771376577	-3.856115812607738	-0.796208001779347	13.25359247115643	-800.6590917223631	-71.30642331511616	-0.04156353516277843	0.7596296472548135	0.01384720794780019	1.52641086174522	-4.887271460358083	-0.08766053432302884	-1.682097723356679	0.2231556177378037	-5.007494799828979	-5.007494799826669	-0.2971657761652857	0.01284618352713857	-1.22879837035422	-0.6372553649650071	-3.052637230713381e-08	-3.363253555551556e-09	1.509657735541458e-07	2.822743808365437e-08	-4.425350358659163e-08	1.857187398288698e-07	-3.619096586447387e-08
1.04	-0.09908237963193892	-0.05467383438357477	0.6862862126708579	1.304081300373459	-0.3286634290515185	0.06951652563771679	-0.9598613026836702	1.394341326032873	1.394341326032887	-0.06507885233537321	-0.1745245022697433	0.2871328940390007	0.0676619584992194	0.1341029343581562	0.02590387284391884	0.1309007420330658	-0.4940462739858729	-0.01140923351477967	-0.1323694670316418	0.005662910623865479	-0.3600568410827404	-0.3600568410827596	-0.01427133025035644	9.992089587902341e-05	-0.02293235254374015	-0.02327839190553683	-0.369780059526974	0.01690939668185454	0.001206994774226448	-0.3777262381579702	0.03192653736847089	0.0275290804277656	0.4267952041516784	-40.89529269663988	-3.985378219375492	-0.7441804330094267	12.74226433449378	-801.4001702923293	-71.33764144513223	-0.041603998657717	0.7512412800172048	0.03438282978496641	1.520935351558673	-4.88943802603576	-0.1037112619835666	-1.649115313880562	0.3310882443458453	-5.004357161008754	-5.004357161008736	-0.3544595936707615	-0.02004596308276297	-1.220336483286631	-0.6546305318246328	-3.421113713629597e-08	-1.541900313198527e-08	1.775549935075875e-07	2.776733278672124e-08	-4.939599545563126e-08	1.925740550001841e-07	-4.16606512518194e-08
1.05	-0.09770461925854367	-0.05441282856901335	0.6876708924155969	1.298897818337607	-0.3287818799352088	0.06810972431846669	-0.9597858387527506	1.390491182930611	1.390491182930618	-0.06523736255655492	-0.1745234991945827	0.2868428364707233	0.06739772205193952	0.1414023002339169	0.02632322587671489	0.1460080926231694	-0.5425709649893046	-0.01226618321267531	-0.1489740173474886	0.009612850237028936	-0.4099390825332702	-0.4099390825332501	-0.01742376223350356	0.000100311446387019	-0.0350749750161223	-0.02954449066174993	-0.3697113793736614	0.01722134670372336	0.001051721475341916	-0.3766337624864606	0.03170242570506842	0.02785699565156379	0.4274174863698331	-40.92721369529443	-4.159545232251544	-0.6737591802356677	12.32181662906249	-801.3646504806568	-71.41009435624291	-0.04166314115989023	0.712254852512636	0.04960731898580417	1.501556821206431	-4.822114288775562	-0.07449382064324327	-1.663646167020047	0.4543930213270548	-4.975243636963119	-4.975243636957231	-0.2946171668709273	0.01006989103187336	-1.210599795442299	-0.6089580048785171	-3.778331743637101e-08	-2.756376481684128e-08	2.040775512024916e-07	2.70735504197827e-08	-5.448210123790925e-08	1.990734599963342e-07	-4.709853079060593e-08
